<!-- Generated by IcoMoon.io -->
<svg version="1.1" xmlns="http://www.w3.org/2000/svg" width="20" height="20" viewBox="0 0 20 20">
<title>icon-gear</title>
<path d="M14.167 8.871v-1.908c-0.975-0.348-1.589-0.444-1.9-1.192-0.311-0.75 0.058-1.26 0.5-2.188l-1.348-1.349c-0.921 0.438-1.436 0.812-2.188 0.5-0.75-0.311-0.847-0.93-1.192-1.9h-1.908c-0.343 0.965-0.442 1.589-1.192 1.9h-0.001c-0.75 0.312-1.258-0.058-2.188-0.5l-1.348 1.349c0.439 0.925 0.811 1.437 0.5 2.188-0.313 0.751-0.936 0.849-1.901 1.192v1.908c0.962 0.343 1.589 0.442 1.9 1.192 0.313 0.757-0.067 1.278-0.5 2.188l1.348 1.349c0.922-0.438 1.437-0.812 2.188-0.5h0.001c0.75 0.311 0.848 0.932 1.192 1.9h1.907c0.343-0.965 0.442-1.587 1.198-1.902h0.001c0.745-0.31 1.251 0.059 2.182 0.502l1.348-1.349c-0.438-0.922-0.812-1.436-0.501-2.188 0.312-0.749 0.938-0.849 1.902-1.192zM7.083 10.278c-1.303 0-2.361-1.058-2.361-2.362s1.058-2.362 2.361-2.362 2.361 1.058 2.361 2.362-1.058 2.362-2.361 2.362zM20 13.782v-0.897c-0.458-0.163-0.748-0.209-0.894-0.561-0.147-0.353 0.027-0.592 0.235-1.030l-0.635-0.635c-0.433 0.207-0.676 0.382-1.029 0.236s-0.399-0.438-0.562-0.894h-0.897c-0.162 0.454-0.208 0.748-0.562 0.894s-0.592-0.027-1.029-0.236l-0.635 0.635c0.207 0.436 0.382 0.677 0.235 1.030s-0.44 0.399-0.894 0.561v0.897c0.453 0.161 0.748 0.208 0.894 0.561 0.148 0.356-0.032 0.602-0.235 1.030l0.635 0.635c0.434-0.207 0.677-0.382 1.029-0.236s0.399 0.438 0.562 0.894h0.897c0.162-0.454 0.208-0.748 0.563-0.895h0.001c0.351-0.146 0.588 0.028 1.027 0.237l0.635-0.635c-0.206-0.434-0.382-0.677-0.235-1.029s0.441-0.401 0.894-0.562zM16.667 14.444c-0.613 0-1.111-0.498-1.111-1.111s0.497-1.111 1.111-1.111 1.111 0.497 1.111 1.111-0.497 1.111-1.111 1.111zM13.333 17.003v-0.673c-0.343-0.122-0.561-0.157-0.671-0.421s0.020-0.444 0.177-0.773l-0.477-0.476c-0.324 0.155-0.506 0.287-0.772 0.177s-0.299-0.328-0.422-0.671h-0.672c-0.122 0.341-0.157 0.561-0.422 0.671s-0.444-0.020-0.772-0.177l-0.477 0.476c0.156 0.328 0.287 0.508 0.177 0.772s-0.33 0.299-0.671 0.421v0.673c0.34 0.121 0.561 0.157 0.671 0.421 0.111 0.267-0.023 0.452-0.177 0.773l0.477 0.476c0.325-0.155 0.507-0.287 0.772-0.177s0.299 0.329 0.422 0.671h0.672c0.122-0.341 0.157-0.561 0.422-0.671h0.001c0.262-0.109 0.441 0.021 0.77 0.178l0.477-0.476c-0.155-0.326-0.287-0.508-0.177-0.772s0.331-0.301 0.671-0.422zM10.833 17.5c-0.46 0-0.833-0.372-0.833-0.833s0.373-0.833 0.833-0.833 0.833 0.372 0.833 0.833-0.373 0.833-0.833 0.833z"></path>
</svg>
