<!-- Generated by IcoMoon.io -->
<svg version="1.1" xmlns="http://www.w3.org/2000/svg" width="20" height="20" viewBox="0 0 20 20">
<title>icon-server</title>
<path d="M18.333 6.667v3.333h-16.667v-3.333h16.667zM20 5h-20v6.667h20v-6.667zM2.5 9.167l0.719-1.667h1.063l-0.719 1.667h-1.063zM4.222 9.167l0.72-1.667h1.063l-0.719 1.667h-1.063zM5.944 9.167l0.719-1.667h1.062l-0.72 1.667h-1.062zM7.666 9.167l0.719-1.667h1.062l-0.719 1.667h-1.062zM10.45 9.167h-1.062l0.719-1.667h1.063l-0.72 1.667zM16.667 9.167c-0.46 0-0.833-0.373-0.833-0.833s0.373-0.833 0.833-0.833c0.461 0 0.833 0.373 0.833 0.833s-0.372 0.833-0.833 0.833zM18.333 15v3.333h-16.667v-3.333h16.667zM20 13.333h-20v6.667h20v-6.667zM2.5 17.5l0.719-1.667h1.063l-0.719 1.667h-1.063zM4.222 17.5l0.719-1.667h1.063l-0.719 1.667h-1.063zM5.944 17.5l0.719-1.667h1.062l-0.72 1.667h-1.062zM7.666 17.5l0.719-1.667h1.062l-0.719 1.667h-1.062zM10.45 17.5h-1.062l0.719-1.667h1.063l-0.72 1.667zM16.667 17.5c-0.46 0-0.833-0.373-0.833-0.833s0.373-0.833 0.833-0.833c0.461 0 0.833 0.373 0.833 0.833s-0.372 0.833-0.833 0.833zM3.669 4.167h-2.003l3.333-4.167h10l3.333 4.167h-2.003l-2.223-2.5h-8.217l-2.223 2.5z"></path>
</svg>
