<!-- Generated by IcoMoon.io -->
<svg version="1.1" xmlns="http://www.w3.org/2000/svg" width="20" height="20" viewBox="0 0 20 20">
<title>icon-lock</title>
<path d="M15 8.333v-3.333c0-2.761-2.239-5-5-5s-5 2.239-5 5v3.333h-2.5v11.667h15v-11.667h-2.5zM10.833 14.769v1.898h-1.667v-1.898c-0.496-0.289-0.833-0.82-0.833-1.436 0-0.92 0.747-1.667 1.667-1.667s1.667 0.747 1.667 1.667c0 0.615-0.337 1.147-0.833 1.436zM6.667 8.333v-3.333c0-1.838 1.495-3.333 3.333-3.333s3.333 1.495 3.333 3.333v3.333h-6.667z"></path>
</svg>
