<svg aria-hidden="true" style="position: absolute; width: 0; height: 0; overflow: hidden;" version="1.1" xmlns="http://www.w3.org/2000/svg" xmlns:xlink="http://www.w3.org/1999/xlink">
<defs>

<symbol id="icon-server" viewBox="0 0 20 20">
<title>server</title>
<path d="M18.333 6.667v3.333h-16.667v-3.333h16.667zM20 5h-20v6.667h20v-6.667zM2.5 9.167l0.719-1.667h1.063l-0.719 1.667h-1.063zM4.222 9.167l0.72-1.667h1.063l-0.719 1.667h-1.063zM5.944 9.167l0.719-1.667h1.062l-0.72 1.667h-1.062zM7.666 9.167l0.719-1.667h1.062l-0.719 1.667h-1.062zM10.45 9.167h-1.062l0.719-1.667h1.063l-0.72 1.667zM16.667 9.167c-0.46 0-0.833-0.373-0.833-0.833s0.373-0.833 0.833-0.833c0.461 0 0.833 0.373 0.833 0.833s-0.372 0.833-0.833 0.833zM18.333 15v3.333h-16.667v-3.333h16.667zM20 13.333h-20v6.667h20v-6.667zM2.5 17.5l0.719-1.667h1.063l-0.719 1.667h-1.063zM4.222 17.5l0.719-1.667h1.063l-0.719 1.667h-1.063zM5.944 17.5l0.719-1.667h1.062l-0.72 1.667h-1.062zM7.666 17.5l0.719-1.667h1.062l-0.719 1.667h-1.062zM10.45 17.5h-1.062l0.719-1.667h1.063l-0.72 1.667zM16.667 17.5c-0.46 0-0.833-0.373-0.833-0.833s0.373-0.833 0.833-0.833c0.461 0 0.833 0.373 0.833 0.833s-0.372 0.833-0.833 0.833zM3.669 4.167h-2.003l3.333-4.167h10l3.333 4.167h-2.003l-2.223-2.5h-8.217l-2.223 2.5z"></path>
</symbol>

<symbol id="icon-lock" viewBox="0 0 20 20">
<title>lock</title>
<path d="M15 8.333v-3.333c0-2.761-2.239-5-5-5s-5 2.239-5 5v3.333h-2.5v11.667h15v-11.667h-2.5zM10.833 14.769v1.898h-1.667v-1.898c-0.496-0.289-0.833-0.82-0.833-1.436 0-0.92 0.747-1.667 1.667-1.667s1.667 0.747 1.667 1.667c0 0.615-0.337 1.147-0.833 1.436zM6.667 8.333v-3.333c0-1.838 1.495-3.333 3.333-3.333s3.333 1.495 3.333 3.333v3.333h-6.667z"></path>
</symbol>

<symbol id="icon-gear" viewBox="0 0 20 20">
<title>gear</title>
<path d="M14.167 8.871v-1.908c-0.975-0.348-1.589-0.444-1.9-1.192-0.311-0.75 0.058-1.26 0.5-2.188l-1.348-1.349c-0.921 0.438-1.436 0.812-2.188 0.5-0.75-0.311-0.847-0.93-1.192-1.9h-1.908c-0.343 0.965-0.442 1.589-1.192 1.9h-0.001c-0.75 0.312-1.258-0.058-2.188-0.5l-1.348 1.349c0.439 0.925 0.811 1.437 0.5 2.188-0.313 0.751-0.936 0.849-1.901 1.192v1.908c0.962 0.343 1.589 0.442 1.9 1.192 0.313 0.757-0.067 1.278-0.5 2.188l1.348 1.349c0.922-0.438 1.437-0.812 2.188-0.5h0.001c0.75 0.311 0.848 0.932 1.192 1.9h1.907c0.343-0.965 0.442-1.587 1.198-1.902h0.001c0.745-0.31 1.251 0.059 2.182 0.502l1.348-1.349c-0.438-0.922-0.812-1.436-0.501-2.188 0.312-0.749 0.938-0.849 1.902-1.192zM7.083 10.278c-1.303 0-2.361-1.058-2.361-2.362s1.058-2.362 2.361-2.362 2.361 1.058 2.361 2.362-1.058 2.362-2.361 2.362zM20 13.782v-0.897c-0.458-0.163-0.748-0.209-0.894-0.561-0.147-0.353 0.027-0.592 0.235-1.030l-0.635-0.635c-0.433 0.207-0.676 0.382-1.029 0.236s-0.399-0.438-0.562-0.894h-0.897c-0.162 0.454-0.208 0.748-0.562 0.894s-0.592-0.027-1.029-0.236l-0.635 0.635c0.207 0.436 0.382 0.677 0.235 1.030s-0.44 0.399-0.894 0.561v0.897c0.453 0.161 0.748 0.208 0.894 0.561 0.148 0.356-0.032 0.602-0.235 1.030l0.635 0.635c0.434-0.207 0.677-0.382 1.029-0.236s0.399 0.438 0.562 0.894h0.897c0.162-0.454 0.208-0.748 0.563-0.895h0.001c0.351-0.146 0.588 0.028 1.027 0.237l0.635-0.635c-0.206-0.434-0.382-0.677-0.235-1.029s0.441-0.401 0.894-0.562zM16.667 14.444c-0.613 0-1.111-0.498-1.111-1.111s0.497-1.111 1.111-1.111 1.111 0.497 1.111 1.111-0.497 1.111-1.111 1.111zM13.333 17.003v-0.673c-0.343-0.122-0.561-0.157-0.671-0.421s0.020-0.444 0.177-0.773l-0.477-0.476c-0.324 0.155-0.506 0.287-0.772 0.177s-0.299-0.328-0.422-0.671h-0.672c-0.122 0.341-0.157 0.561-0.422 0.671s-0.444-0.020-0.772-0.177l-0.477 0.476c0.156 0.328 0.287 0.508 0.177 0.772s-0.33 0.299-0.671 0.421v0.673c0.34 0.121 0.561 0.157 0.671 0.421 0.111 0.267-0.023 0.452-0.177 0.773l0.477 0.476c0.325-0.155 0.507-0.287 0.772-0.177s0.299 0.329 0.422 0.671h0.672c0.122-0.341 0.157-0.561 0.422-0.671h0.001c0.262-0.109 0.441 0.021 0.77 0.178l0.477-0.476c-0.155-0.326-0.287-0.508-0.177-0.772s0.331-0.301 0.671-0.422zM10.833 17.5c-0.46 0-0.833-0.372-0.833-0.833s0.373-0.833 0.833-0.833 0.833 0.372 0.833 0.833-0.373 0.833-0.833 0.833z"></path>
</symbol>

<symbol id="icon-arrow-down" viewBox="0 0 20 20">
<title>arrow-down</title>
<path d="M17.418 6.109c0.272-0.268 0.709-0.268 0.979 0s0.271 0.701 0 0.969l-7.908 7.83c-0.27 0.268-0.707 0.268-0.979 0l-7.908-7.83c-0.27-0.268-0.27-0.701 0-0.969s0.709-0.268 0.979 0l7.419 7.141 7.418-7.141z"></path>
</symbol>

<symbol id="brand-logo" viewBox="0 0 32 32">
<title>stroked-logo</title>
<path stroke="white" stroke-width="0.64" stroke-miterlimit="3" stroke-linecap="square" stroke-linejoin="miter" d="M16 3.832c-6.712 0-12.168 5.456-12.168 12.168s5.456 12.168 12.168 12.168c6.712 0 12.168-5.456 12.168-12.168s-5.456-12.168-12.168-12.168zM16 4.472c6.366 0 11.528 5.162 11.528 11.528s-5.162 11.528-11.528 11.528c-6.366 0-11.528-5.162-11.528-11.528s5.162-11.528 11.528-11.528z"></path>
<path d="M22.080 7.68c0-1.236 1.004-2.24 2.24-2.24s2.24 1.004 2.24 2.24c0 1.236-1.004 2.24-2.24 2.24s-2.24-1.004-2.24-2.24z"></path>
<path d="M26.56 3.2c0-1.236 1.004-2.24 2.24-2.24s2.24 1.004 2.24 2.24c0 1.236-1.004 2.24-2.24 2.24s-2.24-1.004-2.24-2.24z"></path>
<path d="M9.92 7.68c0-1.236-1.004-2.24-2.24-2.24s-2.24 1.004-2.24 2.24c0 1.236 1.004 2.24 2.24 2.24s2.24-1.004 2.24-2.24z"></path>
<path d="M5.44 3.2c0-1.236-1.004-2.24-2.24-2.24s-2.24 1.004-2.24 2.24c0 1.236 1.004 2.24 2.24 2.24s2.24-1.004 2.24-2.24z"></path>
<path d="M22.080 24.32c0 1.236 1.004 2.24 2.24 2.24s2.24-1.004 2.24-2.24c0-1.236-1.004-2.24-2.24-2.24s-2.24 1.004-2.24 2.24z"></path>
<path d="M26.56 28.8c0 1.236 1.004 2.24 2.24 2.24s2.24-1.004 2.24-2.24c0-1.236-1.004-2.24-2.24-2.24s-2.24 1.004-2.24 2.24z"></path>
<path d="M9.92 24.32c0 1.236-1.004 2.24-2.24 2.24s-2.24-1.004-2.24-2.24c0-1.236 1.004-2.24 2.24-2.24s2.24 1.004 2.24 2.24z"></path>
<path d="M5.44 28.8c0 1.236-1.004 2.24-2.24 2.24s-2.24-1.004-2.24-2.24c0-1.236 1.004-2.24 2.24-2.24s2.24 1.004 2.24 2.24z"></path>
<path d="M16.045 8.742q1.306 0 2.285 0.442 0.998 0.442 1.805 1.306l-1.44 1.747q-1.152-1.037-2.246-1.037-0.595 0-0.922 0.346-0.307 0.326-0.307 0.883 0 0.538 0.384 0.902 0.403 0.365 1.555 0.864 1.152 0.518 1.843 1.056t1.037 1.325q0.365 0.768 0.365 1.92 0 1.248-0.576 2.227-0.557 0.96-1.613 1.517-1.056 0.538-2.477 0.538-1.498 0-2.573-0.518t-1.901-1.402l1.594-1.786q0.691 0.614 1.306 0.941 0.614 0.307 1.306 0.307 0.73 0 1.056-0.422 0.346-0.422 0.346-1.114 0-0.653-0.384-1.094t-1.344-0.864q-1.882-0.806-2.669-1.747-0.768-0.941-0.768-2.362 0-1.19 0.557-2.093 0.576-0.902 1.555-1.382 0.998-0.499 2.227-0.499z"></path>
</symbol>

</defs>
</svg>
